<svg width="75" height="75" viewBox="0 0 75 75" fill="none" xmlns="http://www.w3.org/2000/svg">
<path d="M32.5446 30.0837C31.5696 30.7356 30.7325 31.5731 30.0812 32.5484C29.4298 33.5238 28.977 34.6179 28.7485 35.7682C28.2869 38.0915 28.7672 40.503 30.0837 42.4721C31.4002 44.4412 33.445 45.8068 35.7682 46.2683C38.0915 46.7298 40.503 46.2495 42.4721 44.933C44.4412 43.6166 45.8068 41.5718 46.2683 39.2485C46.7298 36.9252 46.2495 34.5138 44.933 32.5446C43.6166 30.5755 41.5718 29.21 39.2485 28.7485C36.9252 28.2869 34.5138 28.7672 32.5446 30.0837ZM56.3672 18.6328C55.4967 17.7623 54.442 17.0759 53.2868 16.6239C50.2567 15.4353 43.644 15.4855 39.375 15.5357C38.6886 15.5357 38.0525 15.5525 37.5 15.5525C36.9475 15.5525 36.2946 15.5525 35.5915 15.5357C31.3225 15.4855 24.7433 15.4185 21.7132 16.6239C20.558 17.0759 19.5201 17.7623 18.6328 18.6328C17.7455 19.5033 17.0759 20.558 16.6239 21.7132C15.4353 24.7433 15.5022 31.3728 15.5357 35.6417C15.5357 36.3281 15.5525 36.9643 15.5525 37.5C15.5525 38.0357 15.5525 38.6719 15.5357 39.3583C15.5022 43.6272 15.4353 50.2567 16.6239 53.2868C17.0759 54.442 17.7623 55.4799 18.6328 56.3672C19.5033 57.2545 20.558 57.9241 21.7132 58.3761C24.7433 59.5647 31.356 59.5145 35.625 59.4643C36.3114 59.4643 36.9475 59.4475 37.5 59.4475C38.0525 59.4475 38.7054 59.4475 39.4085 59.4643C43.6775 59.5145 50.2567 59.5815 53.2868 58.3761C54.442 57.9241 55.4799 57.2377 56.3672 56.3672C57.2545 55.4967 57.9241 54.442 58.3761 53.2868C59.5815 50.2734 59.5145 43.6775 59.4643 39.3917C59.4643 38.6886 59.4475 38.0357 59.4475 37.4833C59.4475 36.9308 59.4475 36.2946 59.4643 35.5748C59.5145 31.3058 59.5815 24.7098 58.3761 21.6797C57.9241 20.5246 57.2377 19.4866 56.3672 18.5993V18.6328ZM45.1339 26.0826C48.162 28.1072 50.2618 31.2519 50.9713 34.8247C51.6809 38.3975 50.9421 42.1058 48.9174 45.1339C47.9149 46.6333 46.6269 47.9205 45.1269 48.9221C43.627 49.9237 41.9444 50.62 40.1753 50.9713C36.6025 51.6809 32.8942 50.9421 29.8661 48.9174C26.838 46.895 24.7373 43.7525 24.0262 40.1812C23.3151 36.61 24.0518 32.9025 26.0742 29.8744C28.0966 26.8464 31.2391 24.7457 34.8104 24.0346C38.3816 23.3235 42.0891 24.0602 45.1172 26.0826H45.1339ZM50.0223 25.865C49.5033 25.5134 49.0848 25.0112 48.8337 24.4252C48.5826 23.8393 48.5324 23.2031 48.6496 22.567C48.7667 21.9308 49.0848 21.3783 49.5201 20.9263C49.9554 20.4743 50.5413 20.173 51.1607 20.0558C51.7801 19.9386 52.433 19.9888 53.019 20.24C53.6049 20.4911 54.1071 20.8929 54.4587 21.4118C54.8103 21.9308 54.9944 22.5502 54.9944 23.1864C54.9944 23.6049 54.9107 24.0234 54.76 24.4085C54.6094 24.7935 54.3583 25.1451 54.0737 25.4464C53.7891 25.7478 53.4208 25.9821 53.0357 26.1496C52.6507 26.317 52.2321 26.4007 51.8136 26.4007C51.1775 26.4007 50.558 26.2165 50.0391 25.865H50.0223ZM75 10.7143C75 4.80469 70.1953 0 64.2857 0H10.7143C4.80469 0 0 4.80469 0 10.7143V64.2857C0 70.1953 4.80469 75 10.7143 75H64.2857C70.1953 75 75 70.1953 75 64.2857V10.7143ZM59.7656 59.7656C56.635 62.8962 52.8348 63.8839 48.5491 64.1016C44.1295 64.3527 30.8705 64.3527 26.4509 64.1016C22.1652 63.8839 18.365 62.8962 15.2344 59.7656C12.1038 56.635 11.1161 52.8348 10.9152 48.5491C10.6641 44.1295 10.6641 30.8705 10.9152 26.4509C11.1328 22.1652 12.1038 18.365 15.2344 15.2344C18.365 12.1038 22.1819 11.1161 26.4509 10.9152C30.8705 10.6641 44.1295 10.6641 48.5491 10.9152C52.8348 11.1328 56.635 12.1038 59.7656 15.2344C62.8962 18.365 63.8839 22.1652 64.0848 26.4509C64.3359 30.8538 64.3359 44.096 64.0848 48.5324C63.8672 52.8181 62.8962 56.6183 59.7656 59.7489V59.7656Z" fill="white"/>
</svg>
