<svg width="75" height="75" viewBox="0 0 75 75" fill="none" xmlns="http://www.w3.org/2000/svg">
<path d="M69.6429 0H5.3404C2.39397 0 0 2.42746 0 5.40737V69.5926C0 72.5725 2.39397 75 5.3404 75H69.6429C72.5893 75 75 72.5725 75 69.5926V5.40737C75 2.42746 72.5893 0 69.6429 0ZM22.6674 64.2857H11.5513V28.4933H22.6842V64.2857H22.6674ZM17.1094 23.6049C13.5435 23.6049 10.6641 20.7087 10.6641 17.1596C10.6641 13.6105 13.5435 10.7143 17.1094 10.7143C20.6585 10.7143 23.5547 13.6105 23.5547 17.1596C23.5547 20.7254 20.6752 23.6049 17.1094 23.6049ZM64.3359 64.2857H53.2199V46.875C53.2199 42.7232 53.1362 37.3828 47.4442 37.3828C41.6518 37.3828 40.7645 41.9029 40.7645 46.5737V64.2857H29.6484V28.4933H40.3125V33.3817H40.4632C41.9531 30.5692 45.5859 27.606 50.9933 27.606C62.2433 27.606 64.3359 35.0223 64.3359 44.6652V64.2857Z" fill="white"/>
</svg>
