<svg width="357" height="99" viewBox="0 0 357 99" fill="none" xmlns="http://www.w3.org/2000/svg">
<path d="M144.31 19.2756C144.196 18.1297 143.708 17.2396 142.847 16.6051C141.985 15.9706 140.815 15.6534 139.338 15.6534C138.334 15.6534 137.487 15.7955 136.795 16.0795C136.104 16.3542 135.574 16.7377 135.205 17.2301C134.845 17.7225 134.665 18.2812 134.665 18.9062C134.646 19.4271 134.755 19.8816 134.991 20.2699C135.238 20.6581 135.574 20.9943 136 21.2784C136.426 21.553 136.919 21.7945 137.477 22.0028C138.036 22.2017 138.633 22.3722 139.267 22.5142L141.881 23.1392C143.15 23.4233 144.314 23.8021 145.375 24.2756C146.436 24.7491 147.354 25.3314 148.131 26.0227C148.907 26.714 149.509 27.5284 149.935 28.4659C150.37 29.4034 150.593 30.4782 150.602 31.6903C150.593 33.4706 150.138 35.0142 149.239 36.321C148.348 37.6184 147.061 38.6269 145.375 39.3466C143.699 40.0568 141.677 40.4119 139.31 40.4119C136.961 40.4119 134.916 40.0521 133.173 39.3324C131.44 38.6127 130.086 37.5473 129.111 36.1364C128.145 34.7159 127.638 32.9593 127.591 30.8665H133.543C133.609 31.8419 133.888 32.6562 134.381 33.3097C134.883 33.9536 135.55 34.4413 136.384 34.7727C137.226 35.0947 138.178 35.2557 139.239 35.2557C140.28 35.2557 141.185 35.1042 141.952 34.8011C142.728 34.4981 143.33 34.0767 143.756 33.5369C144.182 32.9972 144.395 32.3769 144.395 31.6761C144.395 31.0227 144.201 30.4735 143.812 30.0284C143.434 29.5833 142.875 29.2045 142.136 28.892C141.407 28.5795 140.512 28.2955 139.452 28.0398L136.284 27.2443C133.831 26.6477 131.895 25.715 130.474 24.446C129.054 23.1771 128.348 21.4678 128.358 19.3182C128.348 17.5568 128.817 16.018 129.764 14.7017C130.721 13.3854 132.032 12.358 133.699 11.6193C135.366 10.8807 137.259 10.5114 139.381 10.5114C141.54 10.5114 143.424 10.8807 145.034 11.6193C146.653 12.358 147.913 13.3854 148.812 14.7017C149.712 16.018 150.176 17.5426 150.205 19.2756H144.31ZM166.231 18.1818V22.7273H153.092V18.1818H166.231ZM156.075 12.9545H162.126V33.2955C162.126 33.8542 162.211 34.2898 162.381 34.6023C162.552 34.9053 162.789 35.1184 163.092 35.2415C163.404 35.3646 163.764 35.4261 164.171 35.4261C164.455 35.4261 164.739 35.4025 165.023 35.3551C165.308 35.2983 165.525 35.2557 165.677 35.2273L166.629 39.7301C166.326 39.8248 165.899 39.9337 165.35 40.0568C164.801 40.1894 164.133 40.2699 163.347 40.2983C161.889 40.3551 160.611 40.161 159.512 39.7159C158.423 39.2708 157.576 38.5795 156.969 37.642C156.363 36.7045 156.065 35.5208 156.075 34.0909V12.9545ZM179.796 40.4261C177.59 40.4261 175.682 39.9574 174.072 39.0199C172.471 38.0729 171.236 36.7566 170.364 35.071C169.493 33.3759 169.058 31.411 169.058 29.1761C169.058 26.9223 169.493 24.9527 170.364 23.267C171.236 21.572 172.471 20.2557 174.072 19.3182C175.682 18.3712 177.59 17.8977 179.796 17.8977C182.003 17.8977 183.906 18.3712 185.506 19.3182C187.116 20.2557 188.357 21.572 189.228 23.267C190.099 24.9527 190.535 26.9223 190.535 29.1761C190.535 31.411 190.099 33.3759 189.228 35.071C188.357 36.7566 187.116 38.0729 185.506 39.0199C183.906 39.9574 182.003 40.4261 179.796 40.4261ZM179.825 35.7386C180.828 35.7386 181.666 35.4545 182.339 34.8864C183.011 34.3087 183.518 33.5227 183.859 32.5284C184.209 31.5341 184.384 30.4025 184.384 29.1335C184.384 27.8646 184.209 26.733 183.859 25.7386C183.518 24.7443 183.011 23.9583 182.339 23.3807C181.666 22.803 180.828 22.5142 179.825 22.5142C178.811 22.5142 177.959 22.803 177.268 23.3807C176.586 23.9583 176.07 24.7443 175.719 25.7386C175.379 26.733 175.208 27.8646 175.208 29.1335C175.208 30.4025 175.379 31.5341 175.719 32.5284C176.07 33.5227 176.586 34.3087 177.268 34.8864C177.959 35.4545 178.811 35.7386 179.825 35.7386ZM194.469 40V18.1818H200.336V21.9886H200.563C200.961 20.6345 201.629 19.6117 202.566 18.9205C203.504 18.2197 204.583 17.8693 205.805 17.8693C206.108 17.8693 206.434 17.8883 206.785 17.9261C207.135 17.964 207.443 18.0161 207.708 18.0824V23.4517C207.424 23.3665 207.031 23.2907 206.529 23.2244C206.027 23.1581 205.568 23.125 205.151 23.125C204.261 23.125 203.466 23.3191 202.765 23.7074C202.074 24.0862 201.524 24.6165 201.117 25.2983C200.719 25.9801 200.521 26.7661 200.521 27.6562V40H194.469ZM215.237 48.1818C214.469 48.1818 213.75 48.1203 213.077 47.9972C212.415 47.8835 211.865 47.7367 211.43 47.5568L212.793 43.0398C213.504 43.2576 214.143 43.3759 214.711 43.3949C215.289 43.4138 215.786 43.2813 216.202 42.9972C216.629 42.7131 216.974 42.2301 217.239 41.5483L217.594 40.625L209.768 18.1818H216.131L220.648 34.2045H220.876L225.435 18.1818H231.842L223.362 42.358C222.954 43.5322 222.4 44.5549 221.7 45.4261C221.008 46.3068 220.132 46.9839 219.072 47.4574C218.011 47.9403 216.733 48.1818 215.237 48.1818ZM235.052 40V10.9091H241.103V21.8466H241.288C241.553 21.2595 241.936 20.6629 242.438 20.0568C242.95 19.4413 243.612 18.9299 244.427 18.5227C245.251 18.1061 246.273 17.8977 247.495 17.8977C249.086 17.8977 250.554 18.3144 251.898 19.1477C253.243 19.9716 254.318 21.2169 255.123 22.8835C255.928 24.5407 256.33 26.6193 256.33 29.1193C256.33 31.553 255.937 33.608 255.151 35.2841C254.375 36.9508 253.314 38.215 251.969 39.0767C250.634 39.929 249.138 40.3551 247.481 40.3551C246.307 40.3551 245.308 40.161 244.484 39.7727C243.669 39.3845 243.002 38.8968 242.481 38.3097C241.96 37.7131 241.562 37.1117 241.288 36.5057H241.018V40H235.052ZM240.975 29.0909C240.975 30.3883 241.155 31.5199 241.515 32.4858C241.875 33.4517 242.396 34.2045 243.077 34.7443C243.759 35.2746 244.588 35.5398 245.563 35.5398C246.548 35.5398 247.381 35.2699 248.063 34.7301C248.745 34.1809 249.261 33.4233 249.612 32.4574C249.971 31.482 250.151 30.3598 250.151 29.0909C250.151 27.8314 249.976 26.7235 249.626 25.767C249.275 24.8106 248.759 24.0625 248.077 23.5227C247.396 22.983 246.558 22.7131 245.563 22.7131C244.578 22.7131 243.745 22.9735 243.063 23.4943C242.391 24.0152 241.875 24.7538 241.515 25.7102C241.155 26.6667 240.975 27.7936 240.975 29.0909ZM270.226 40.4261C268.019 40.4261 266.111 39.9574 264.501 39.0199C262.901 38.0729 261.665 36.7566 260.794 35.071C259.923 33.3759 259.487 31.411 259.487 29.1761C259.487 26.9223 259.923 24.9527 260.794 23.267C261.665 21.572 262.901 20.2557 264.501 19.3182C266.111 18.3712 268.019 17.8977 270.226 17.8977C272.432 17.8977 274.336 18.3712 275.936 19.3182C277.546 20.2557 278.786 21.572 279.658 23.267C280.529 24.9527 280.964 26.9223 280.964 29.1761C280.964 31.411 280.529 33.3759 279.658 35.071C278.786 36.7566 277.546 38.0729 275.936 39.0199C274.336 39.9574 272.432 40.4261 270.226 40.4261ZM270.254 35.7386C271.258 35.7386 272.096 35.4545 272.768 34.8864C273.441 34.3087 273.947 33.5227 274.288 32.5284C274.639 31.5341 274.814 30.4025 274.814 29.1335C274.814 27.8646 274.639 26.733 274.288 25.7386C273.947 24.7443 273.441 23.9583 272.768 23.3807C272.096 22.803 271.258 22.5142 270.254 22.5142C269.241 22.5142 268.389 22.803 267.697 23.3807C267.016 23.9583 266.5 24.7443 266.149 25.7386C265.808 26.733 265.638 27.8646 265.638 29.1335C265.638 30.4025 265.808 31.5341 266.149 32.5284C266.5 33.5227 267.016 34.3087 267.697 34.8864C268.389 35.4545 269.241 35.7386 270.254 35.7386ZM294.757 40.4261C292.551 40.4261 290.643 39.9574 289.033 39.0199C287.432 38.0729 286.196 36.7566 285.325 35.071C284.454 33.3759 284.018 31.411 284.018 29.1761C284.018 26.9223 284.454 24.9527 285.325 23.267C286.196 21.572 287.432 20.2557 289.033 19.3182C290.643 18.3712 292.551 17.8977 294.757 17.8977C296.964 17.8977 298.867 18.3712 300.467 19.3182C302.077 20.2557 303.318 21.572 304.189 23.267C305.06 24.9527 305.496 26.9223 305.496 29.1761C305.496 31.411 305.06 33.3759 304.189 35.071C303.318 36.7566 302.077 38.0729 300.467 39.0199C298.867 39.9574 296.964 40.4261 294.757 40.4261ZM294.786 35.7386C295.789 35.7386 296.627 35.4545 297.3 34.8864C297.972 34.3087 298.479 33.5227 298.82 32.5284C299.17 31.5341 299.345 30.4025 299.345 29.1335C299.345 27.8646 299.17 26.733 298.82 25.7386C298.479 24.7443 297.972 23.9583 297.3 23.3807C296.627 22.803 295.789 22.5142 294.786 22.5142C293.772 22.5142 292.92 22.803 292.229 23.3807C291.547 23.9583 291.031 24.7443 290.68 25.7386C290.339 26.733 290.169 27.8646 290.169 29.1335C290.169 30.4025 290.339 31.5341 290.68 32.5284C291.031 33.5227 291.547 34.3087 292.229 34.8864C292.92 35.4545 293.772 35.7386 294.786 35.7386ZM314.913 33.7216L314.928 26.4631H315.808L322.797 18.1818H329.743L320.354 29.1477H318.919L314.913 33.7216ZM309.43 40V10.9091H315.482V40H309.43ZM323.067 40L316.646 30.4972L320.68 26.2216L330.155 40H323.067ZM128.528 60.9091H136.114L144.125 80.4545H144.466L152.477 60.9091H160.062V90H154.097V71.0653H153.855L146.327 89.858H142.264L134.736 70.9943H134.494V90H128.528V60.9091ZM171.238 90.4119C169.846 90.4119 168.605 90.1705 167.516 89.6875C166.427 89.1951 165.566 88.4706 164.931 87.5142C164.306 86.5483 163.994 85.3456 163.994 83.9062C163.994 82.6941 164.216 81.6761 164.661 80.8523C165.106 80.0284 165.712 79.3655 166.479 78.8636C167.246 78.3617 168.118 77.983 169.093 77.7273C170.078 77.4716 171.11 77.2917 172.19 77.1875C173.459 77.0549 174.481 76.9318 175.258 76.8182C176.034 76.6951 176.598 76.5152 176.948 76.2784C177.299 76.0417 177.474 75.6913 177.474 75.2273V75.142C177.474 74.2424 177.19 73.5464 176.621 73.054C176.063 72.5616 175.267 72.3153 174.235 72.3153C173.146 72.3153 172.28 72.5568 171.636 73.0398C170.992 73.5133 170.566 74.1098 170.357 74.8295L164.761 74.375C165.045 73.0492 165.603 71.9034 166.437 70.9375C167.27 69.9621 168.345 69.214 169.661 68.6932C170.987 68.1629 172.521 67.8977 174.263 67.8977C175.476 67.8977 176.636 68.0398 177.744 68.3239C178.861 68.608 179.851 69.0483 180.712 69.6449C181.584 70.2415 182.27 71.0085 182.772 71.946C183.274 72.8741 183.525 73.9867 183.525 75.2841V90H177.786V86.9744H177.616C177.265 87.6562 176.797 88.2576 176.21 88.7784C175.622 89.2898 174.917 89.6922 174.093 89.9858C173.269 90.2699 172.317 90.4119 171.238 90.4119ZM172.971 86.2358C173.861 86.2358 174.647 86.0606 175.329 85.7102C176.011 85.3504 176.546 84.8674 176.934 84.2614C177.322 83.6553 177.516 82.9687 177.516 82.2017V79.8864C177.327 80.0095 177.067 80.1231 176.735 80.2273C176.413 80.322 176.049 80.4119 175.641 80.4972C175.234 80.5729 174.827 80.6439 174.42 80.7102C174.013 80.767 173.643 80.8191 173.312 80.8665C172.602 80.9706 171.981 81.1364 171.451 81.3636C170.921 81.5909 170.509 81.8987 170.215 82.2869C169.922 82.6657 169.775 83.1392 169.775 83.7074C169.775 84.5312 170.073 85.161 170.67 85.5966C171.276 86.0227 172.043 86.2358 172.971 86.2358ZM188.219 90V68.1818H194.086V71.9886H194.313C194.711 70.6345 195.379 69.6117 196.316 68.9205C197.254 68.2197 198.333 67.8693 199.555 67.8693C199.858 67.8693 200.184 67.8883 200.535 67.9261C200.885 67.964 201.193 68.0161 201.458 68.0824V73.4517C201.174 73.3665 200.781 73.2907 200.279 73.2244C199.777 73.1581 199.318 73.125 198.901 73.125C198.011 73.125 197.216 73.3191 196.515 73.7074C195.824 74.0862 195.274 74.6165 194.867 75.2983C194.469 75.9801 194.271 76.7661 194.271 77.6562V90H188.219ZM210.07 83.7216L210.084 76.4631H210.964L217.953 68.1818H224.899L215.51 79.1477H214.075L210.07 83.7216ZM204.587 90V60.9091H210.638V90H204.587ZM218.223 90L211.803 80.4972L215.837 76.2216L225.311 90H218.223ZM236.913 90.4261C234.668 90.4261 232.737 89.9716 231.117 89.0625C229.507 88.1439 228.267 86.8466 227.396 85.1705C226.524 83.4848 226.089 81.4915 226.089 79.1903C226.089 76.946 226.524 74.9763 227.396 73.2812C228.267 71.5862 229.493 70.2652 231.075 69.3182C232.665 68.3712 234.531 67.8977 236.671 67.8977C238.111 67.8977 239.451 68.1297 240.691 68.5938C241.941 69.0483 243.03 69.7348 243.958 70.6534C244.896 71.572 245.625 72.7273 246.146 74.1193C246.666 75.5019 246.927 77.1212 246.927 78.9773V80.6392H228.504V76.8892H241.231C241.231 76.018 241.041 75.2462 240.663 74.5739C240.284 73.9015 239.758 73.3759 239.086 72.9972C238.423 72.6089 237.651 72.4148 236.771 72.4148C235.852 72.4148 235.038 72.6278 234.327 73.054C233.627 73.4706 233.077 74.0341 232.68 74.7443C232.282 75.4451 232.078 76.2263 232.069 77.0881V80.6534C232.069 81.733 232.268 82.6657 232.665 83.4517C233.073 84.2377 233.646 84.8438 234.384 85.2699C235.123 85.696 235.999 85.9091 237.012 85.9091C237.684 85.9091 238.3 85.8144 238.859 85.625C239.417 85.4356 239.896 85.1515 240.293 84.7727C240.691 84.3939 240.994 83.9299 241.202 83.3807L246.799 83.75C246.515 85.0947 245.933 86.2689 245.052 87.2727C244.181 88.267 243.054 89.0436 241.671 89.6023C240.298 90.1515 238.712 90.4261 236.913 90.4261ZM262.481 68.1818V72.7273H249.342V68.1818H262.481ZM252.325 62.9545H258.376V83.2955C258.376 83.8542 258.461 84.2898 258.631 84.6023C258.802 84.9053 259.039 85.1184 259.342 85.2415C259.654 85.3646 260.014 85.4261 260.421 85.4261C260.705 85.4261 260.989 85.4025 261.273 85.3551C261.558 85.2983 261.775 85.2557 261.927 85.2273L262.879 89.7301C262.576 89.8248 262.149 89.9337 261.6 90.0568C261.051 90.1894 260.383 90.2699 259.597 90.2983C258.139 90.3551 256.861 90.161 255.762 89.7159C254.673 89.2708 253.826 88.5795 253.219 87.642C252.613 86.7045 252.315 85.5208 252.325 84.0909V62.9545ZM266.423 90V68.1818H272.474V90H266.423ZM269.462 65.3693C268.563 65.3693 267.791 65.071 267.147 64.4744C266.513 63.8684 266.195 63.1439 266.195 62.3011C266.195 61.4678 266.513 60.7528 267.147 60.1562C267.791 59.5502 268.563 59.2472 269.462 59.2472C270.362 59.2472 271.129 59.5502 271.763 60.1562C272.407 60.7528 272.729 61.4678 272.729 62.3011C272.729 63.1439 272.407 63.8684 271.763 64.4744C271.129 65.071 270.362 65.3693 269.462 65.3693ZM283.372 77.3864V90H277.321V68.1818H283.088V72.0312H283.344C283.827 70.7623 284.636 69.7585 285.773 69.0199C286.909 68.2718 288.287 67.8977 289.906 67.8977C291.421 67.8977 292.742 68.2292 293.869 68.892C294.996 69.5549 295.872 70.5019 296.497 71.733C297.122 72.9545 297.435 74.4129 297.435 76.108V90H291.384V77.1875C291.393 75.8523 291.052 74.8106 290.361 74.0625C289.67 73.3049 288.718 72.9261 287.506 72.9261C286.691 72.9261 285.972 73.1013 285.347 73.4517C284.731 73.8021 284.248 74.3134 283.898 74.9858C283.557 75.6487 283.382 76.4489 283.372 77.3864ZM312.033 98.6364C310.073 98.6364 308.392 98.3665 306.991 97.8267C305.599 97.2964 304.491 96.572 303.667 95.6534C302.843 94.7348 302.308 93.7027 302.062 92.5568L307.658 91.804C307.829 92.2396 308.099 92.6468 308.468 93.0256C308.837 93.4044 309.325 93.7074 309.931 93.9347C310.547 94.1714 311.295 94.2898 312.175 94.2898C313.492 94.2898 314.576 93.9678 315.428 93.3239C316.29 92.6894 316.721 91.6241 316.721 90.1278V86.1364H316.465C316.2 86.7424 315.802 87.3153 315.272 87.8551C314.742 88.3949 314.06 88.8352 313.227 89.1761C312.393 89.517 311.399 89.6875 310.244 89.6875C308.605 89.6875 307.114 89.3087 305.769 88.5511C304.434 87.7841 303.369 86.6146 302.573 85.0426C301.787 83.4612 301.394 81.4631 301.394 79.0483C301.394 76.5767 301.797 74.5123 302.602 72.8551C303.406 71.1979 304.477 69.9574 305.812 69.1335C307.156 68.3097 308.629 67.8977 310.229 67.8977C311.451 67.8977 312.474 68.1061 313.298 68.5227C314.121 68.9299 314.784 69.4413 315.286 70.0568C315.798 70.6629 316.191 71.2595 316.465 71.8466H316.692V68.1818H322.701V90.2131C322.701 92.0691 322.246 93.6222 321.337 94.8722C320.428 96.1222 319.169 97.0597 317.559 97.6847C315.959 98.3191 314.117 98.6364 312.033 98.6364ZM312.161 85.142C313.137 85.142 313.96 84.9006 314.633 84.4176C315.315 83.9252 315.835 83.2244 316.195 82.3153C316.565 81.3968 316.749 80.2983 316.749 79.0199C316.749 77.7415 316.569 76.6335 316.21 75.696C315.85 74.7491 315.329 74.0152 314.647 73.4943C313.965 72.9735 313.137 72.7131 312.161 72.7131C311.167 72.7131 310.329 72.983 309.647 73.5227C308.965 74.053 308.449 74.7917 308.099 75.7386C307.748 76.6856 307.573 77.7794 307.573 79.0199C307.573 80.2794 307.748 81.3684 308.099 82.2869C308.459 83.196 308.975 83.9015 309.647 84.4034C310.329 84.8958 311.167 85.142 312.161 85.142Z" fill="white"/>
<path d="M44.2 89.8424C46.1125 90.4636 48.1667 89.1722 48.1667 87.3087V25.6174C48.1667 24.9309 47.8833 24.2443 47.2812 23.8193C43.8104 21.2693 35.8417 18 25.5 18C16.5573 18 8.19896 20.1741 3.20521 21.9395C1.20417 22.6587 0 24.4895 0 26.4674V86.9981C0 88.9433 2.26667 90.3001 4.26771 89.6953C9.84583 87.9789 18.6823 86.001 25.5 86.001C31.5031 86.001 39.4896 88.2895 44.2 89.8424ZM57.8 89.8424C62.5104 88.2895 70.4969 86.001 76.5 86.001C83.3177 86.001 92.1542 87.9789 97.7323 89.6953C99.7333 90.3164 102 88.9433 102 86.9981V26.4674C102 24.4895 100.796 22.6587 98.7948 21.9558C93.801 20.1741 85.4427 18 76.5 18C66.1583 18 58.1896 21.2693 54.7187 23.8193C54.1344 24.2443 53.8333 24.9309 53.8333 25.6174V87.3087C53.8333 89.1722 55.9052 90.4636 57.8 89.8424Z" fill="white"/>
</svg>
