<svg version="1.2" xmlns="http://www.w3.org/2000/svg" viewBox="0 0 1024 1024" width="1024" height="1024">
	<title>vecteezy_document-technology-business-set-collection-isometric-icon_-ai</title>
	<style>
		.s0 { fill: #e9e9f3 } 
		.s1 { mix-blend-mode: multiply;fill: #e9e9f3 } 
		.s2 { fill: #473961 } 
		.s3 { fill: #675487 } 
		.s4 { fill: #fec537 } 
		.s5 { fill: #fed14a } 
		.s6 { opacity: .3;fill: #feae37 } 
		.s7 { opacity: .5;mix-blend-mode: soft-light;fill: #f5fafb } 
		.s8 { fill: #feae37 } 
		.s9 { fill: #9e53fc } 
		.s10 { fill: #bebed6 } 
		.s11 { fill: #ac6bfc } 
		.s12 { fill: #75d6c6 } 
		.s13 { fill: #7e6d99 } 
		.s14 { fill: #e67f29 } 
		.s15 { fill: #f2b924 } 
		.s16 { fill: #dcdce6 } 
		.s17 { fill: #5fcfbd } 
		.s18 { fill: #e2597a } 
		.s19 { fill: #ad6dfc } 
	</style>
	<g id="Layer 5">
		<g id="&lt;Group&gt;">
			<path id="&lt;Path&gt;" class="s0" d="m-1519.5-222.7c-139.6 80.6-367.9 80.6-507.5 0l-183.1-106.7c-139.5-80.5-139.5-212.4 0-292.9l78.6-45.4c139.6-80.6 367.9-80.6 507.5 0l183.1 106.6c139.6 80.6 139.6 212.4 0 293z"/>
			<path id="&lt;Path&gt;" class="s1" d="m-1702.9-342.3c-67.7 39.1-177.5 39.1-245.2 0-67.7-39.1-67.7-102.5 0-141.6 67.7-39.1 177.5-39.1 245.2 0 67.8 39.1 67.8 102.5 0 141.6z"/>
			<g id="&lt;Group&gt;">
				<path id="&lt;Path&gt;" class="s2" d="m-1784-443c-6.6 16.1-22.4 27.5-40.9 27.5-18.5 0-34.4-11.4-40.9-27.5z"/>
				<path id="&lt;Path&gt;" class="s3" d="m-1735.1-562.2l-7.9 85.6c0 12.1-8 24.2-24 33.5-32 18.4-83.8 18.4-115.8 0-16-9.3-24-21.4-24-33.5l-7.9-85.6c0-13.2 8.8-26.5 26.3-36.6 35.1-20.3 91.9-20.3 127 0 17.5 10.1 26.3 23.4 26.3 36.6z"/>
				<path id="&lt;Path&gt;" class="s4" d="m-1824.9-974.4c-100.1 0-181.3 81.2-181.3 181.3 0 11.8 1.1 23.4 3.3 34.6q0 0 0 0 2.3 10 5.1 20.2c23.1 82.3 72.7 173 86 189.1 3.8 8.6 11.6 16.9 23.4 23.7 35.1 20.2 91.9 20.2 127 0 11.8-6.8 19.6-15.1 23.4-23.7 13.3-16.1 62.9-106.8 86-189.1 1.9-6.8 3.6-13.6 5.1-20.2q0 0 0 0c2.2-11.2 3.3-22.8 3.3-34.6 0-100.1-81.2-181.3-181.3-181.3z"/>
				<path id="&lt;Path&gt;" class="s5" d="m-1643.6-793.1c0 11.8-1.1 23.4-3.3 34.5 0 0.1 0 0.1 0 0.1-1.5 6.6-3.2 13.4-5.1 20.2-2.9 10.3-6.2 20.8-9.8 31.2-37.8 48.7-96.8 80-163.1 80-66.3 0-125.3-31.3-163-79.9-3.7-10.5-7-21-9.9-31.3-1.9-6.8-3.6-13.6-5.1-20.2 0 0 0 0 0-0.1-2.2-11.1-3.3-22.7-3.3-34.5 0-100.1 81.2-181.3 181.3-181.3 100.1 0 181.3 81.2 181.3 181.3z"/>
				<path id="&lt;Path&gt;" class="s6" d="m-1994.5-727.1q3 10 6.5 20c25.1 72.7 64.5 143.8 76.2 157.8 3.8 8.7 11.6 17 23.4 23.8 35.1 20.2 91.9 20.2 127 0 11.8-6.8 19.5-15.1 23.4-23.7 11.7-14.1 51-85.1 76.1-157.8 3.7-10.5 7-21 9.9-31.4 1.9-6.7 3.6-13.5 5.1-20.1 0 0 0 0 0-0.1 2.2-11.1 3.3-22.7 3.3-34.6 0-27.1-5.9-52.8-16.6-75.9 2.9 13 4.5 26.5 4.5 40.3 0 11.9-1.1 23.5-3.3 34.6 0 0.1 0 0.1 0 0.1-1.5 6.6-3.2 13.4-5.1 20.1-2.9 10.4-6.3 20.9-9.9 31.4-25.1 72.7-64.5 143.7-76.1 157.8-3.9 8.6-11.7 16.9-23.4 23.7-35.1 20.2-92 20.2-127 0-11.8-6.8-19.6-15.1-23.5-23.8-10.8-13-45.5-75.2-70.5-142.2z"/>
				<path id="&lt;Path&gt;" class="s7" d="m-1952.3-889.6c0 0 0.7-1.3 2-3.6q1-1.8 2.5-4.3c0.9-1.6 2.4-3.6 4.1-5.8 1.7-2.1 3.6-4.7 5.8-7.1 2.2-2.4 4.6-4.9 7.3-7.7q4.2-3.7 9.1-7.9c3.4-2.5 7-5.2 11-7.8 8-4.9 17-9.9 27.3-13.6q1.9-0.7 3.8-1.5 2-0.6 4-1.2c2.6-0.8 5.4-1.7 8.1-2.4 5.6-1.3 11.3-2.7 17.2-3.4 5.9-1 11.9-1.3 18.1-1.7 6.1 0 12.3-0.1 18.5 0.5 6.3 0.3 12.5 1.4 18.8 2.3 6.2 1.4 12.4 2.6 18.5 4.6 6.1 1.7 12 4.2 18 6.5q4.3 2 8.6 4c2.9 1.2 5.6 3 8.3 4.4l4.1 2.3c1.4 0.8 2.6 1.7 4 2.6 2.6 1.7 5.2 3.3 7.7 5.2 4.9 3.7 9.7 7.4 14 11.5 9 7.9 16.4 16.9 22.7 25.7 3 4.5 6.1 8.8 8.3 13.4q1.8 3.3 3.6 6.5c1 2.2 2 4.5 2.9 6.6 0.9 2.2 1.8 4.2 2.6 6.3q1.1 3.1 2.1 6.2 1 3 1.9 5.8c0.5 1.9 0.9 3.8 1.3 5.6 1.9 7.2 2.6 13.7 3.2 18.9 0.3 2.6 0.3 5 0.4 7q0 3.1 0.1 5.2c0 2.8-0.1 4.2-0.1 4.2 0 4.5-3.6 8-8 8-3.1 0-5.8-1.8-7.1-4.3l-0.4-0.7c0 0-0.6-1.2-1.8-3.5-1.2-2.3-2.6-5.7-4.8-9.8q-1.7-3.1-3.6-6.7-0.5-0.9-1-1.9-0.6-0.9-1.2-1.8-1.1-1.9-2.4-4-1.2-2-2.5-4.1-1.4-2-2.9-4.2-1.5-2.1-3-4.3c-1-1.5-2.2-2.9-3.4-4.4q-1.7-2.2-3.5-4.5-1.9-2.1-3.9-4.4c-2.5-3-5.5-5.9-8.4-8.8-1.4-1.6-3.1-2.8-4.7-4.3-1.6-1.4-3.1-2.9-4.8-4.3-3.5-2.6-6.8-5.5-10.5-7.9-3.6-2.7-7.6-5-11.4-7.4q-3-1.7-6.1-3.4c-2-1.1-4.1-2.1-6.2-3.1-2.1-1-4.2-2.1-6.4-3q-3.3-1.3-6.5-2.7c-2.2-0.8-4.5-1.5-6.7-2.3-2.2-0.9-4.5-1.5-6.8-2.2-4.5-1.4-9.2-2.4-13.8-3.5-4.7-0.8-9.3-1.8-14-2.3-4.6-0.8-9.3-0.9-13.9-1.3-4.6-0.1-9.2-0.4-13.6-0.2-4.6 0-8.9 0.5-13.3 0.7-2.2 0.3-4.3 0.6-6.4 0.8q-1.6 0.2-3.2 0.4-1.5 0.3-3 0.6-3.1 0.6-6.1 1.1-3 0.7-5.8 1.4c-4 0.7-7.5 2.1-11.1 3.1-3.5 1.1-6.8 2.4-10.1 3.5q-4.7 2.1-9 3.9c-2.7 1.3-5.3 2.7-7.8 3.8-2.4 1.2-4.3 2.5-6.3 3.5-2 1-3.7 1.9-5.4 3.1q-2.4 1.7-4.1 2.7c-2.3 1.5-3.5 2.2-3.5 2.2-3.8 2.4-8.8 1.3-11.2-2.5-1.6-2.6-1.6-5.8-0.2-8.3z"/>
				<g id="&lt;Group&gt;">
					<g id="&lt;Group&gt;">
						<g id="&lt;Group&gt;">
							<path id="&lt;Path&gt;" class="s8" d="m-2101.1-622.6c-3.5 0-7-1.8-8.9-5.1-2.8-4.9-1.1-11.2 3.8-14l85.6-49.4c4.9-2.9 11.2-1.2 14 3.7 2.8 4.9 1.2 11.2-3.7 14l-85.6 49.4c-1.7 1-3.4 1.4-5.2 1.4z"/>
						</g>
						<g id="&lt;Group&gt;">
							<path id="&lt;Path&gt;" class="s8" d="m-1627.4-896c-3.6 0-7-1.9-8.9-5.2-2.9-4.9-1.2-11.2 3.7-14l85.6-49.4c4.9-2.8 11.2-1.1 14 3.8 2.9 4.9 1.2 11.1-3.7 14l-85.6 49.4c-1.6 0.9-3.4 1.4-5.1 1.4z"/>
						</g>
					</g>
					<g id="&lt;Group&gt;">
						<g id="&lt;Group&gt;">
							<path id="&lt;Path&gt;" class="s8" d="m-1541.9-622.6c-1.7 0-3.5-0.4-5.1-1.4l-85.6-49.4c-4.9-2.8-6.6-9.1-3.7-14 2.8-4.9 9.1-6.6 14-3.7l85.6 49.4c4.9 2.8 6.6 9.1 3.7 14-1.9 3.3-5.3 5.1-8.9 5.1z"/>
						</g>
						<g id="&lt;Group&gt;">
							<path id="&lt;Path&gt;" class="s8" d="m-2015.5-896c-1.7 0-3.5-0.5-5.1-1.4l-85.6-49.4c-4.9-2.9-6.6-9.1-3.8-14 2.9-4.9 9.2-6.6 14.1-3.8l85.6 49.4c4.9 2.8 6.5 9.1 3.7 14-1.9 3.3-5.3 5.2-8.9 5.2z"/>
						</g>
					</g>
					<g id="&lt;Group&gt;">
						<g id="&lt;Group&gt;">
							<path id="&lt;Path&gt;" class="s8" d="m-1821.4-1008c-5.7 0-10.3-4.6-10.3-10.3v-98.8c0-5.7 4.6-10.3 10.3-10.3 5.6 0 10.2 4.6 10.2 10.3v98.8c0 5.7-4.6 10.3-10.2 10.3z"/>
						</g>
					</g>
					<g id="&lt;Group&gt;">
						<g id="&lt;Group&gt;">
							<path id="&lt;Path&gt;" class="s8" d="m-1933.5-978c-3.5 0-7-1.9-8.9-5.2l-49.4-85.6c-2.8-4.9-1.1-11.1 3.8-14 4.9-2.8 11.2-1.1 14 3.8l49.4 85.6c2.8 4.9 1.1 11.2-3.8 14-1.6 0.9-3.3 1.4-5.1 1.4z"/>
						</g>
					</g>
					<g id="&lt;Group&gt;">
						<g id="&lt;Group&gt;">
							<path id="&lt;Path&gt;" class="s8" d="m-1709.4-978c-1.8 0-3.5-0.5-5.2-1.4-4.9-2.8-6.5-9.1-3.7-14l49.4-85.6c2.8-4.9 9.1-6.6 14-3.8 4.9 2.9 6.6 9.1 3.8 14l-49.5 85.6c-1.9 3.3-5.3 5.2-8.8 5.2z"/>
						</g>
					</g>
					<g id="&lt;Group&gt;">
						<g id="&lt;Group&gt;">
							<path id="&lt;Path&gt;" class="s8" d="m-2045.5-784h-98.8c-5.7 0-10.3-4.6-10.3-10.3 0-5.6 4.6-10.2 10.3-10.2h98.8c5.7 0 10.3 4.6 10.3 10.2 0 5.7-4.6 10.3-10.3 10.3z"/>
						</g>
						<g id="&lt;Group&gt;">
							<path id="&lt;Path&gt;" class="s8" d="m-1597.4-784c-5.7 0-10.3-4.6-10.3-10.3 0-5.6 4.6-10.2 10.3-10.2h98.8c5.7 0 10.3 4.6 10.3 10.2 0 5.7-4.6 10.3-10.3 10.3z"/>
						</g>
					</g>
				</g>
			</g>
		</g>
		<g id="&lt;Group&gt;">
			<path id="&lt;Path&gt;" class="s0" d="m-351.5-222.2c-139.6 80.6-367.9 80.6-507.5 0l-183.1-106.6c-139.6-80.6-139.6-212.4 0-293l78.6-45.4c139.6-80.6 367.9-80.6 507.5 0l183.1 106.7c139.5 80.5 139.6 212.4 0 292.9z"/>
			<path id="&lt;Path&gt;" class="s1" d="m-458.2-309.3c-34.9 20.1-95.8 17.9-135.4-5l-300.1-173.2c-39.6-22.9-43.5-58.1-8.6-78.2 34.8-20.1 95.7-17.9 135.3 5l300.2 173.3c39.6 22.8 43.4 58 8.6 78.1z"/>
			<g id="&lt;Group&gt;">
				<path id="&lt;Path&gt;" class="s3" d="m-902.3-760.3q35.4-20.6 70.7-41.1 6.3-3.6 12.5-7.3 2.2-1.2 5-1.5c5.6-0.5 10.7-2.1 14.7-4.4l-83.3 48.4c-3.9 2.3-9 3.9-14.7 4.4q-2.7 0.2-4.9 1.5z"/>
				<path id="&lt;Path&gt;" class="s3" d="m-631.8-474.6l83.2-48.3c-5.1 3-9.1 16-9.1 31.5 0 7.8-2.9 13.2-7.7 16q-25 14.5-50 29-16.6 9.7-33.3 19.4c4.8-2.8 7.7-8.3 7.8-16 0-15.5 3.9-28.6 9.1-31.6z"/>
				<path id="&lt;Path&gt;" class="s3" d="m-624.1-636.8c-48.6-28.1-87.9-96.1-87.8-152 0.1-27.7 9.9-47.2 25.7-56.4q-41.6 24.2-83.2 48.4c-15.8 9.1-25.6 28.7-25.7 56.4-0.1 55.9 39.1 123.9 87.8 151.9 24.4 14.2 46.5 15.5 62.5 6.2q6.3-3.7 12.5-7.3 35.4-20.5 70.8-41.1c-16 9.3-38.2 8-62.6-6.1z"/>
				<path id="&lt;Path&gt;" class="s3" d="m-433.8-590.6c-13.3-16.6-23.7-36.2-23.1-43.7 0 0 0 0 0-7.2 0.1-7.3 0.1-7.3 0.1-7.3-0.4-4.8 3-9.4 8.6-12.6q-41.7 24.2-83.3 48.4c-5.5 3.2-8.9 7.8-8.6 12.5 0 0 0 0 0 7.3 0 7.3 0 7.3 0 7.3-0.6 7.5 9.7 27.1 23.1 43.6 13.3 16.7 16.6 41 7.2 54.1l-33.1 46.5c-1.8 2.5-3.9 4.5-6.3 5.8q16.7-9.7 33.3-19.3 25-14.5 50-29c2.3-1.4 4.4-3.3 6.2-5.9l33.1-46.4c9.4-13.2 6.2-37.5-7.2-54.1z"/>
				<path id="&lt;Path&gt;" class="s9" d="m-426.1-711.3l-32.7-84.5c-6.7-17.3-18.2-31.7-29.1-38.1-4.2-2.4-8.3-3.6-12-3.3-9.6 0.8-20.3-1.6-27.7-5.9-3-1.7-5.4-3.7-7-5.9-5.8-7.5-22-40.7-21.9-58.5 0-17.8-15.2-41-33.8-51.7l-65.8-38c-10.5-6.1-20-6.9-26.2-3.3q-20.8 12.1-41.6 24.2-6.1 3.5-12.1 7c-4-3.1-7.7-6.6-10.8-10.4-3.7-4.6-7.8-8.1-12-10.6-8.1-4.6-16.4-5.2-23-1.4q-41.6 24.2-83.2 48.4c6.5-3.8 14.9-3.2 22.9 1.4 4.2 2.4 8.4 6 12.1 10.5 5.9 7.4 14.2 13.6 22.2 18.2 10.2 5.8 19.8 9.2 23.2 9.2q1.2 0 2.3-0.7 29.7-17.3 59.5-34.6l49.3 28.4c18.6 10.8 33.8 34 33.7 51.8 0 17.7 16.2 50.9 21.9 58.5 1.7 2.2 4.1 4.2 7 5.9 7.5 4.3 18.2 6.7 27.7 5.9 3.8-0.3 7.9 0.9 12.1 3.3 10.9 6.3 22.4 20.8 29.1 38l32.7 84.5c8 20.7 6.6 38.8-2.6 44.1q6.3-3.6 12.5-7.3 35.4-20.5 70.8-41.1c9.1-5.3 10.5-23.3 2.5-44z"/>
				<path id="&lt;Compound Path&gt;" fill-rule="evenodd" class="s10" d="m-517-542.3c13.3 16.7 16.6 41 7.2 54.1l-33.1 46.5c-6.8 9.5-18.3 10.7-29.2 4.4-4.2-2.4-8.3-6-12-10.6-5.9-7.3-14.3-13.5-22.3-18.1-10.2-5.9-19.8-9.2-23.2-9.2-6.2 0-11.3 14.5-11.3 32.2-0.1 17.8-15.4 23.4-34 12.7l-65.8-38c-18.6-10.8-33.8-34-33.7-51.8 0-17.7-16.2-50.9-21.9-58.6-1.6-2.1-4-4-6.9-5.7-7.4-4.3-18.2-6.8-27.8-6-3.7 0.3-7.9-0.9-12.1-3.3-10.9-6.3-22.3-20.8-29-38.1l-32.8-84.5c-9.2-23.9-5.9-44.4 7.5-45.5 13.4-1.2 23.9-8.8 23.3-16.9 0 0 0 0 0-7.3 0-7.3 0-7.3 0-7.3 0.7-7.4-9.7-27.2-23-43.7-13.4-16.6-16.6-40.9-7.3-54.1l33.1-46.4c6.8-9.5 18.3-10.7 29.2-4.4 4.2 2.4 8.4 6 12.1 10.5 5.9 7.4 14.2 13.6 22.2 18.2 10.2 5.8 19.8 9.2 23.2 9.2 6.2 0 11.3-14.4 11.4-32.2 0-17.8 15.3-23.4 33.9-12.6l65.8 37.9c18.6 10.8 33.8 34 33.7 51.8 0 17.7 16.2 50.9 21.9 58.5 1.7 2.2 4.1 4.2 7 5.9 7.5 4.3 18.2 6.7 27.7 5.9 3.8-0.3 7.9 0.9 12.1 3.3 10.9 6.3 22.4 20.8 29.1 38l32.7 84.5c9.3 24 5.9 44.5-7.5 45.6-13.4 1.1-23.9 8.8-23.3 16.9 0 0 0 0 0 7.3 0 7.3 0 7.3 0 7.3-0.6 7.5 9.7 27.1 23.1 43.6zm-190.3-46.2c48.5 28.1 88.1 5.6 88.2-50.3 0.2-55.8-39.1-123.9-87.7-151.9-48.6-28.1-88.1-5.5-88.3 50.3-0.1 55.9 39.1 123.9 87.8 151.9z"/>
			</g>
		</g>
		<g id="&lt;Group&gt;">
			<path id="&lt;Path&gt;" class="s0" d="m816.5-222.2c-139.6 80.6-367.9 80.6-507.5 0l-183.1-106.6c-139.6-80.6-139.6-212.4 0-293l78.6-45.4c139.6-80.6 367.9-80.6 507.5 0l183.1 106.7c139.5 80.5 139.5 212.4 0 292.9z"/>
			<path id="&lt;Path&gt;" class="s1" d="m781.3-282.8c-43.1 24.9-118.5 22.1-167.4-6.2l-371.1-214.2c-49-28.3-53.8-71.8-10.7-96.7 43.1-24.9 118.4-22.1 167.4 6.2l371.1 214.2c49 28.3 53.8 71.8 10.7 96.7z"/>
			<g id="&lt;Group&gt;">
				<g id="&lt;Group&gt;">
					<path id="&lt;Path&gt;" class="s11" d="m723.9-738l-376.6-217.4c-11.5-6.7-22-7.3-29.6-2.9q-25.8 15.1-51.7 30.1c7.5-4.4 18-3.8 29.5 2.8l376.7 217.5c22.8 13.2 41.5 45.6 41.4 71.9l-0.8 305.9c-0.1 13-4.7 22.2-12.2 26.6q25.9-15.1 51.8-30.1c7.5-4.4 12.1-13.6 12.2-26.6l0.8-305.9c0.1-26.3-18.6-58.7-41.5-71.9z"/>
					<path id="&lt;Path&gt;" class="s3" d="m672.2-707.9c22.8 13.2 41.5 45.6 41.4 71.9l-0.8 305.9c-0.1 26.2-18.9 37-41.8 23.7l-376.6-217.4c-22.9-13.2-41.6-45.6-41.5-71.8l0.9-305.9c0.1-26.3 18.8-37.1 41.7-23.9z"/>
					<g id="&lt;Group&gt;">
						<path id="&lt;Path&gt;" class="s12" d="m336-780.6c0 27.7 19.6 61.6 43.6 75.5l207.4 119.7c24 13.9 43.6 2.6 43.6-25.1v-6.7c0-27.7-19.6-61.7-43.6-75.6l-207.4-119.7c-24-13.9-43.6-2.6-43.6 25.1z"/>
						<path id="&lt;Path&gt;" class="s11" d="m483.3-695.6c0 27.7 19.6 61.7 43.6 75.6l60.1 34.6c24 13.9 43.6 2.6 43.6-25.1v-6.7c0-27.7-19.6-61.7-43.6-75.6l-60.1-34.7c-24-13.8-43.6-2.5-43.6 25.2z"/>
						<path id="&lt;Path&gt;" class="s13" d="m336-614.5c0 27.7 19.6 61.7 43.6 75.6l207.4 119.7c24 13.9 43.6 2.6 43.6-25.1v-6.8c0-27.7-19.6-61.7-43.6-75.5l-207.4-119.8c-24-13.8-43.6-2.5-43.6 25.2z"/>
						<path id="&lt;Path&gt;" class="s11" d="m336-614.5c0 27.7 19.6 61.7 43.6 75.6l60.1 34.7c24 13.8 43.6 2.5 43.6-25.2v-6.7c0-27.7-19.6-61.7-43.6-75.6l-60.1-34.7c-24-13.8-43.6-2.5-43.6 25.2z"/>
					</g>
				</g>
				<g id="&lt;Group&gt;">
					<path id="&lt;Path&gt;" class="s0" d="m586.7-693.3l-60.6-35c-12.2-7-23.2-7.7-31.3-3l-25.4 14.8c8-4.7 19.1-4 31.3 3l60.6 35c24.2 14 43.9 48.2 43.9 76v6.7c-0.1 13.8-5 23.6-12.9 28.2l25.4-14.8c7.9-4.6 12.9-14.3 12.9-28.2v-6.7c0.1-27.8-19.6-62-43.9-76z"/>
					<path id="&lt;Path&gt;" class="s11" d="m561.3-678.5c24.2 14 43.9 48.2 43.9 76v6.7c-0.1 27.8-20 39.2-44.2 25.2l-60.6-35c-24.2-14-44-48.2-43.9-76v-6.7c0.1-27.8 20-39.2 44.2-25.2z"/>
				</g>
				<g id="&lt;Group&gt;">
					<path id="&lt;Path&gt;" class="s0" d="m439.4-612.1l-60.6-35c-12.2-7-23.3-7.7-31.3-3l-25.4 14.8c8-4.7 19.1-4.1 31.2 3l60.7 35c24.2 14 43.9 48.2 43.8 76v6.7c0 13.8-4.9 23.6-12.8 28.2l25.4-14.8c7.9-4.6 12.8-14.4 12.9-28.2v-6.7c0.1-27.8-19.7-62-43.9-76z"/>
					<path id="&lt;Path&gt;" class="s11" d="m414-597.3c24.2 14 43.9 48.2 43.8 76v6.7c-0.1 27.8-19.9 39.1-44.1 25.2l-60.7-35c-24.2-14-43.9-48.2-43.8-76v-6.8c0.1-27.8 19.9-39.1 44.1-25.1z"/>
				</g>
			</g>
		</g>
		<g id="&lt;Group&gt;">
			<path id="&lt;Path&gt;" class="s0" d="m-1519.5 947.2c-139.6 80.6-367.9 80.6-507.5 0l-183.1-106.6c-139.5-80.6-139.5-212.4 0-293l78.6-45.4c139.6-80.6 367.9-80.6 507.5 0l183.1 106.7c139.6 80.5 139.6 212.4 0 292.9z"/>
			<g id="&lt;Group&gt;" style="mix-blend-mode: multiply">
				<path id="&lt;Path&gt;" class="s1" d="m-1652.4 878.7c-32.1 18.6-84.6 18.6-116.7 0l-354.8-204.8c-32.1-18.5-32.1-48.8 0-67.4l96.6-51.7c32-18.6 84.6-18.6 116.6 0l354.8 204.8c32.1 18.5 32.1 48.8 0 67.4z"/>
			</g>
			<g id="&lt;Group&gt;">
				<g id="&lt;Group&gt;">
					<path id="&lt;Path&gt;" class="s14" d="m-1567.8 469.8l-359.7-207.7c-4.7-2.7-9.6-3.5-14.2-2.8-5.2 0.8-12.2 4.2-20.9 7 4.5-1.4 14.9-1.5 19.6 1.2l359.6 207.7c13.1 7.5 20.8 27.3 17.2 43.9l-86.8 328.6 15.6-2.5 86.7-331.5c3.6-16.6-4.1-36.4-17.1-43.9z"/>
					<path id="&lt;Path&gt;" class="s15" d="m-1583.4 475.2c13.1 7.5 20.8 27.3 17.2 43.9l-86.8 328.6-412.3-238.1 89.3-327c5.1-15.8 19.9-22.6 33-15.1z"/>
				</g>
				<g id="&lt;Group&gt;">
					<g id="&lt;Group&gt;">
						<path id="&lt;Compound Path&gt;" fill-rule="evenodd" class="s0" d="m-1719.6 570.5c-1.2 0-2.2-0.4-3.1-1.2-8.2-7.9-20.7-4.2-33 0.9-1.3 0.5-2.8 0.4-4-0.3-1.2-0.8-1.9-2-2.1-3.4-1.1-12.5-4.8-33.7-16.8-35-2.1-0.2-3.7-1.8-3.9-3.8-0.3-2.1 0.9-4 2.9-4.7 14.1-5 17.8-22.7 17.8-22.8 0.3-1.2 1-2.3 2.1-2.9 1-0.7 2.3-0.9 3.4-0.5 0.2 0 20.5 5.6 31.1-2.4 1.2-0.8 2.8-1 4.2-0.5 1.4 0.5 2.4 1.7 2.8 3.2 2.8 13.4 6.6 26.8 18.7 29.7 1.7 0.4 2.9 1.7 3.3 3.3 0.4 1.6-0.2 3.3-1.5 4.4-9 7.3-12.3 17.1-15.8 27.4q-1 2.9-2 5.7c-0.5 1.4-1.7 2.4-3.1 2.8q-0.5 0.1-1 0.1zm-48.5-43.9c6.2 4.7 11.9 14.3 14.4 33.3 8.8-3.3 21.4-6.6 31.9-0.8 3.1-9.1 6.2-18.4 13.3-26.4-10.5-6-14.7-18.2-17.1-28-10.1 4.2-22.3 2.7-28.7 1.5-1.8 5.3-5.8 14.3-13.8 20.4z"/>
					</g>
					<g id="&lt;Group&gt;">
						<path id="&lt;Path&gt;" class="s0" d="m-1723.6 502q-0.2 0-0.5 0c-2.4-0.3-4.1-2.5-3.8-4.9 2.7-24 12.2-50.8 20.5-74.3 1.8-5 3.5-9.9 5.1-14.5 0.8-2.3 3.3-3.5 5.6-2.8 2.2 0.8 3.5 3.3 2.7 5.6-1.6 4.7-3.3 9.6-5.1 14.6-8.2 23.1-17.5 49.4-20.1 72.4-0.3 2.3-2.2 3.9-4.4 3.9z"/>
					</g>
					<g id="&lt;Group&gt;">
						<path id="&lt;Path&gt;" class="s0" d="m-1699.1 535.2c-2.4 0-4.4-1.9-4.4-4.3-0.1-2.4 1.8-4.4 4.2-4.5 31.3-0.8 62.2-11.4 92.1-21.6 11.5-4 23.3-8.1 34.8-11.4 2.3-0.7 4.8 0.7 5.4 3 0.7 2.3-0.6 4.8-3 5.4-11.2 3.3-22.5 7.2-34.4 11.3-30.5 10.4-62 21.3-94.6 22.1q-0.1 0-0.1 0z"/>
					</g>
					<g id="&lt;Group&gt;">
						<path id="&lt;Path&gt;" class="s0" d="m-1757.8 504.9c-2 0-3.8-1.3-4.2-3.4-3.1-13.4-7-27.1-11.1-41.5-9.6-33.7-19.6-68.6-18.4-102.2 0.1-2.4 2.1-4.4 4.6-4.3 2.4 0.1 4.3 2.2 4.2 4.6-1.1 32.2 8.6 66.4 18.1 99.5 3.9 13.9 8 28.3 11.1 42 0.6 2.3-0.9 4.7-3.3 5.2q-0.5 0.1-1 0.1z"/>
					</g>
					<g id="&lt;Group&gt;">
						<path id="&lt;Path&gt;" class="s0" d="m-1669.9 770.6c-2.1 0-3.9-1.5-4.3-3.6-4.1-25.3-14.1-63.3-23.8-100.1-9.2-35.2-18.8-71.5-23.1-96.2-0.4-2.4 1.2-4.7 3.6-5.1 2.4-0.5 4.7 1.2 5.1 3.5 4.2 24.4 13.7 60.6 22.9 95.6 9.7 37 19.8 75.2 24 100.8 0.4 2.4-1.2 4.7-3.6 5.1q-0.4 0-0.8 0z"/>
					</g>
					<g id="&lt;Group&gt;">
						<path id="&lt;Path&gt;" class="s0" d="m-1770.4 604.6q-0.3 0-0.6-0.1c-2.4-0.3-4.1-2.5-3.8-4.9 1.1-8.9 5.4-26.9 14.7-37.5 1.6-1.8 4.4-2 6.2-0.4 1.8 1.6 2 4.4 0.4 6.2-7.3 8.3-11.5 24.2-12.6 32.8-0.3 2.2-2.2 3.9-4.3 3.9z"/>
					</g>
					<g id="&lt;Group&gt;">
						<path id="&lt;Path&gt;" class="s0" d="m-1847.5 540.1c-7.9 0-15.2-0.9-21.3-3.2-2.2-0.9-3.3-3.5-2.5-5.7 0.9-2.3 3.5-3.4 5.7-2.5 12.8 5 33.6 2 53.8-0.9 11.8-1.7 23-3.3 32.6-3.3 2.4 0 4.3 1.9 4.3 4.4 0 2.4-1.9 4.4-4.3 4.4-9 0-19.9 1.5-31.4 3.2-12.6 1.8-25.4 3.6-36.9 3.6z"/>
					</g>
					<g id="&lt;Group&gt;">
						<path id="&lt;Compound Path&gt;" fill-rule="evenodd" class="s0" d="m-1706.9 614c-1.2 0-2.3-0.4-3.2-1.3-12.8-13.6-38.1-23.7-56.6-16.3-1.2 0.4-2.5 0.4-3.6-0.2-1.2-0.6-2-1.7-2.3-2.9-6.5-27.4-20.6-44.5-44.3-53.7-1.6-0.6-2.7-2.2-2.8-3.9-0.1-1.8 0.9-3.4 2.5-4.2 29-14.1 35.4-54 39.7-80.4 0.2-1.4 1.1-2.6 2.4-3.3 1.3-0.6 2.8-0.5 4 0.2 18.5 10.2 39.9 0.8 58.9-7.9 0.4-2.1 2.3-3.6 4.4-3.5 2.4 0.1 4.3 2.1 4.3 4.5q-0.1 0.6-0.1 1.3 0.1 0.5 0 1.1c0.1 24.5 13.1 68.6 40.7 76.4 1.5 0.4 2.6 1.6 3.1 3 0.4 1.5 0 3.1-1 4.2-18.3 20.4-40.4 51.3-41.7 82.7-0.1 1.8-1.2 3.4-2.9 4q-0.7 0.2-1.5 0.2zm-46-28.9c15.2 0 31 6.4 42.5 15.4 4.2-28.3 22.3-55.1 38.9-74.5-25-11.8-38.8-48.6-40.7-76.3-17.5 8-38.2 16-57.6 8.5-4.2 25.5-11.2 59.5-35.9 76.7 20.6 10.3 33.6 27 40.5 51.7 4-1 8.1-1.5 12.3-1.5z"/>
					</g>
					<g id="&lt;Group&gt;">
						<path id="&lt;Compound Path&gt;" fill-rule="evenodd" class="s0" d="m-1690.3 672.6c-0.9 0-1.9-0.3-2.6-0.9-22.6-16.9-73.4-28.4-98.3-17.1-1.2 0.6-2.6 0.5-3.8-0.1-1.2-0.6-2.1-1.8-2.3-3.1-3.5-19.1-18.1-84-58.8-115.9-1.1-0.8-1.8-2.2-1.7-3.6 0.1-1.5 0.8-2.8 2-3.5 35.7-22.6 47.7-67.2 58.3-106.5 1.5-5.2 2.8-10.3 4.3-15.3q0.1-0.6 0.4-1.1l2.9-4.9c0.7-1.1 1.7-1.8 3-2 1.2-0.3 2.4 0 3.4 0.7 20.5 15.3 55.6 20.3 79.9 11.5 1.2-0.4 2.4-0.3 3.5 0.2 1 0.5 1.8 1.4 2.2 2.6 1.1 3.3 2.2 6.8 3.4 10.5 6.5 20.4 14.7 45.8 28.6 59.6 9.3 9.2 21.4 12.8 34.2 16.6 5 1.5 10.2 3 15.3 4.9 1.4 0.5 2.4 1.7 2.7 3.1 0.4 1.4 0 2.9-1 4-15.2 16.8-25.9 39.4-36.2 61.3-3.7 7.9-7.2 15.3-10.9 22.5-10.5 20.4-22.8 47.1-24.1 72.3-0.1 1.7-1.1 3.1-2.5 3.8q-0.9 0.4-1.9 0.4zm-75.4-31.2c24.5 0 53.1 7.9 71.7 19 3.1-24.5 14.5-49.1 24.4-68.4 3.6-7 7.1-14.4 10.8-22.1 9.6-20.5 19.5-41.5 33.3-58.6-2.9-0.9-5.8-1.8-8.7-2.6-13.3-3.9-27-8-37.9-18.8-15.4-15.3-23.9-41.8-30.8-63.2q-1-3.2-2-6.2c-24.9 7.2-58.1 2.5-79.8-11.4l-0.2 0.4c-1.4 4.8-2.7 9.7-4.1 14.7-10.5 39.1-22.4 83.1-57.1 108.2 36.6 32.2 51.6 88.7 56.4 112.2 7-2.2 15.3-3.2 24-3.2z"/>
					</g>
				</g>
				<g id="&lt;Group&gt;">
					<path id="&lt;Path&gt;" class="s14" d="m-1710.1 644.2c-5.1-11.6-19.8-27.3-32.8-34.8l-117.6-67.9-46.3-61.5c-9.6-12.7-28.1-29.2-41.1-36.7l-204.4-118-15.6 15.5 204.5 118.1c13 7.5 31.5 24 41 36.7l46.3 61.5 117.6 67.9c13.1 7.5 27.8 23.1 32.8 34.8l72.7 187.9 15.6-15.6z"/>
					<path id="&lt;Path&gt;" class="s15" d="m-1963.4 458.9c13 7.5 31.5 24 41 36.7l46.3 61.5 117.6 67.9c13.1 7.5 27.8 23.1 32.8 34.8l72.7 187.9-410.4-237-104.5-269.9z"/>
				</g>
				<path id="&lt;Path&gt;" class="s0" d="m-1979.7 596.7l-72.7-42c-4.2-2.4-6.5-1.4-5.1 2.3l14.3 37.4c1.4 3.7 6 8.7 10.2 11.1l72.7 42c4.1 2.3 6.4 1.3 5-2.4l-14.3-37.4c-1.4-3.7-5.9-8.6-10.1-11z"/>
			</g>
		</g>
		<g id="&lt;Group&gt;">
			<path id="&lt;Path&gt;" class="s0" d="m-351.5 947.2c-139.6 80.6-367.9 80.6-507.5 0l-183.1-106.6c-139.6-80.6-139.6-212.4 0-293l78.6-45.4c139.6-80.6 367.9-80.6 507.5 0l183.1 106.7c139.6 80.5 139.6 212.4 0 292.9z"/>
			<g id="&lt;Group&gt;" style="mix-blend-mode: multiply">
				<path id="&lt;Path&gt;" class="s1" d="m-484.4 878.7c-32.1 18.6-84.6 18.6-116.7 0l-354.8-204.8c-32.1-18.5-32.1-48.8 0-67.4l96.5-51.7c32.1-18.6 84.6-18.6 116.7 0l354.8 204.8c32.1 18.5 32.1 48.8 0 67.4z"/>
			</g>
			<g id="&lt;Group&gt;">
				<g id="&lt;Group&gt;">
					<path id="&lt;Path&gt;" class="s14" d="m-399.9 469.8l-359.7-207.7c-4.6-2.7-9.5-3.5-14.1-2.8-5.2 0.8-12.2 4.2-20.9 7 4.5-1.4 14.9-1.5 19.5 1.2l359.7 207.7c13.1 7.5 20.8 27.3 17.2 43.9l-86.8 328.6 15.5-2.5 86.8-331.5c3.6-16.6-4.1-36.4-17.2-43.9z"/>
					<path id="&lt;Path&gt;" class="s15" d="m-415.4 475.2c13.1 7.5 20.8 27.3 17.2 43.9l-86.8 328.6-412.3-238.1 89.3-327c5.1-15.8 19.9-22.6 32.9-15.1z"/>
				</g>
			</g>
			<g id="&lt;Group&gt;">
				<g id="&lt;Group&gt;">
					<path id="&lt;Path&gt;" class="s16" d="m-429.6 566.4l-70.5 195.9c-3.6 9.9-15 9.8-25.5-0.4l-111.2-108.4-47.1-46c-10.4-10.1-16-26.5-12.4-36.5l77.4-214.8 3.5-9.9c3.6-10 15-9.8 25.4 0.3l130.4 127.1z"/>
					<path id="&lt;Path&gt;" class="s9" d="m-429.6 566.4l-28-27.3c-10.4-10.1-16-26.5-12.4-36.5l10.4-28.9z"/>
					<path id="&lt;Path&gt;" class="s9" d="m-556.4 540.2c5.6-15.5-3-41-19.3-56.8-16.2-15.8-34-16.1-39.6-0.6-5.5 15.6 3.1 41 19.3 56.9 16.3 15.8 34 16.1 39.6 0.5z"/>
					<path id="&lt;Path&gt;" class="s9" d="m-484.5 580.6l-18.1 50.1-52.4-51.1z"/>
				</g>
				<path id="&lt;Path&gt;" class="s1" d="m-613.7 365.5v259.5c0 18.5-9.4 29-23.1 28.5l-47.1-46c-10.4-10.1-16-26.5-12.4-36.5l77.4-214.8z"/>
				<g id="&lt;Group&gt;">
					<path id="&lt;Path&gt;" class="s16" d="m-633.7 363.2v250.3c0 12.6-8.9 17.8-19.9 11.5l-167.6-96.7c-11-6.4-19.9-21.9-19.9-34.6v-287.2c0-12.6 8.9-17.8 19.9-11.5l137.9 79.6z"/>
					<path id="&lt;Path&gt;" class="s17" d="m-633.7 363.2l-29.6-17.1c-11-6.3-20-21.9-20-34.6v-36.9z"/>
					<g id="&lt;Group&gt;">
						<path id="&lt;Path&gt;" class="s17" d="m-802.3 389.5v-34l24.4 14.1-0.1 34z"/>
						<path id="&lt;Path&gt;" class="s17" d="m-749.6 420v-56.1l24.4 14v56.1z"/>
						<path id="&lt;Path&gt;" class="s17" d="m-696.8 450.4v-84.2l24.3 14v84.3z"/>
					</g>
				</g>
			</g>
			<g id="&lt;Group&gt;">
				<g id="&lt;Group&gt;">
					<path id="&lt;Path&gt;" class="s14" d="m-542.2 644.2c-5-11.6-19.7-27.3-32.8-34.8l-117.6-67.9-46.3-61.5c-9.5-12.7-28-29.2-41-36.7l-204.5-118-15.5 15.5 204.4 118.1c13.1 7.5 31.5 24 41.1 36.7l46.3 61.5 117.6 67.9c13 7.5 27.8 23.1 32.8 34.8l72.7 187.9 15.6-15.6z"/>
					<path id="&lt;Path&gt;" class="s15" d="m-795.5 458.9c13.1 7.5 31.5 24 41.1 36.7l46.3 61.5 117.6 67.9c13 7.5 27.8 23.1 32.8 34.8l72.7 187.9-410.4-237-104.5-269.9z"/>
				</g>
				<path id="&lt;Path&gt;" class="s0" d="m-811.7 596.7l-72.7-42c-4.2-2.4-6.5-1.4-5.1 2.3l14.3 37.4c1.4 3.7 6 8.7 10.1 11.1l72.8 42c4.1 2.3 6.4 1.3 5-2.4l-14.3-37.4c-1.4-3.7-6-8.6-10.1-11z"/>
			</g>
		</g>
		<g id="&lt;Group&gt;">
			<path id="&lt;Path&gt;" class="s0" d="m816.5 947.2c-139.6 80.6-367.9 80.6-507.5 0l-183.1-106.6c-139.6-80.6-139.6-212.4 0-293l78.6-45.4c139.6-80.6 367.9-80.6 507.5 0l183.1 106.7c139.5 80.5 139.5 212.4 0 292.9z"/>
			<g id="&lt;Group&gt;" style="mix-blend-mode: multiply">
				<path id="&lt;Path&gt;" class="s1" d="m746.9 872.2c-36 20.9-95.1 20.9-131.2 0l-398.8-230.2c-36-20.8-36-54.9 0-75.8l108.5-58.1c36.1-20.9 95.1-20.9 131.2 0l398.8 230.2c36.1 20.8 36.1 54.9 0 75.8z"/>
			</g>
			<g id="&lt;Group&gt;">
				<g id="&lt;Group&gt;">
					<path id="&lt;Path&gt;" class="s18" d="m889.9 454.4l-81.4 303.4c-4.2 15.4-17.4 22.3-29.4 15.3l-83.8-48.4-99.9-57.6c-12-6.9-18.5-25.3-14.3-40.6l73.6-274.3 19.8-73.9c4.1-15.4 17.4-22.3 29.4-15.3l151.1 87.3-12 44.7c-4.1 15.4 2.4 33.7 14.4 40.6z"/>
					<path id="&lt;Path&gt;" class="s16" d="m855 350.3l-12 44.7c-4.1 15.4 2.4 33.7 14.4 40.6l32.5 18.8z"/>
					<g id="&lt;Group&gt;">
						<path id="&lt;Path&gt;" class="s3" d="m750.4 475.9c-15.6-9.1-32.7-0.2-38 19.8-5.4 20 2.9 43.5 18.6 52.5 15.6 9 32.6 0.2 38-19.8 5.4-20-3-43.5-18.6-52.5z"/>
						<path id="&lt;Path&gt;" class="s3" d="m801.6 500.1l-21.8 81.5 53.8-16z"/>
					</g>
				</g>
				<path id="&lt;Path&gt;" class="s1" d="m754.7 512.3l-59.4 212.4-99.9-57.6c-12-6.9-18.5-25.3-14.3-40.6l73.6-274.3 59.7 35.6z"/>
				<g id="&lt;Group&gt;">
					<path id="&lt;Path&gt;" class="s17" d="m719.6 510.8l-81.4 303.4c-4.2 15.4-17.4 22.3-29.5 15.4l-183.6-106.1c-12-6.9-18.5-25.2-14.4-40.6l4.3-15.7 89.2-332.4c4.1-15.4 17.3-22.3 29.4-15.3l83.7 48.3 67.4 38.9-12 44.7c-4.1 15.5 2.3 33.7 14.4 40.7z"/>
					<path id="&lt;Path&gt;" class="s16" d="m684.7 406.7l-12 44.8c-4.1 15.3 2.3 33.6 14.4 40.6l32.5 18.7z"/>
					<g id="&lt;Group&gt;">
						<path id="&lt;Path&gt;" class="s3" d="m513.6 589.6l-26.7-15.4-11.1 41.3 26.7 15.4z"/>
						<path id="&lt;Path&gt;" class="s3" d="m578.6 596.3l-26.7-15.5-18.3 68.1 26.8 15.4z"/>
						<path id="&lt;Path&gt;" class="s3" d="m645.6 595.5l-26.7-15.4-27.5 102.1 26.8 15.5z"/>
					</g>
				</g>
				<path id="&lt;Path&gt;" class="s1" d="m617.3 367.8l-82.2 293.3c-6.7 24-26.6 40.2-49.4 40.2-8.6 0-17.3-2.4-25-6.8l-45.7-27.3 89.2-332.4c4.1-15.4 17.3-22.3 29.4-15.3z"/>
				<g id="&lt;Group&gt;">
					<path id="&lt;Path&gt;" class="s19" d="m405.2 156.6l150.8 89.9-12.5 44.5c-4.3 15.3 2 33.7 14 40.8l32.4 19.3-84.5 301.6c-4.2 15.2-17.4 21.9-29.3 15l-183.1-109.2c-12-7.1-18.3-25.5-14-40.8l96.9-346.1c4.3-15.2 17.4-21.8 29.3-15z"/>
					<path id="&lt;Path&gt;" class="s16" d="m556 246.5l33.9 104.6-32.4-19.3c-12-7.1-18.3-25.5-14-40.8z"/>
					<g id="&lt;Group&gt;">
						<path id="&lt;Path&gt;" class="s3" d="m406.9 385.4l-9.5 34 104.5 62.3 9.5-34z"/>
						<path id="&lt;Path&gt;" class="s3" d="m350.7 430.8l-9.5 34 141.7 84.5 9.5-33.9z"/>
					</g>
				</g>
			</g>
		</g>
	</g>
</svg>