<svg width="421" height="70" viewBox="60 15 350 70" fill="none" xmlns="http://www.w3.org/2000/svg">
<g filter="url(#filter0_d_31_11)">
<path d="M113.817 48.4929C113.737 47.6908 113.396 47.0677 112.793 46.6236C112.189 46.1794 111.371 45.9574 110.337 45.9574C109.634 45.9574 109.041 46.0568 108.557 46.2557C108.073 46.4479 107.702 46.7164 107.443 47.0611C107.191 47.4058 107.065 47.7969 107.065 48.2344C107.052 48.599 107.128 48.9171 107.294 49.1889C107.466 49.4607 107.702 49.696 108 49.8949C108.298 50.0871 108.643 50.2562 109.034 50.402C109.425 50.5412 109.843 50.6605 110.287 50.7599L112.116 51.1974C113.005 51.3963 113.82 51.6615 114.562 51.9929C115.305 52.3243 115.948 52.732 116.491 53.2159C117.035 53.6998 117.456 54.2699 117.754 54.9261C118.059 55.5824 118.215 56.3348 118.222 57.1832C118.215 58.4295 117.897 59.5099 117.267 60.4247C116.644 61.3329 115.742 62.0388 114.562 62.5426C113.389 63.0398 111.974 63.2884 110.317 63.2884C108.673 63.2884 107.241 63.0365 106.021 62.5327C104.808 62.0289 103.86 61.2831 103.178 60.2955C102.501 59.3011 102.147 58.0715 102.114 56.6065H106.28C106.326 57.2893 106.522 57.8594 106.866 58.3168C107.218 58.7675 107.685 59.1089 108.268 59.3409C108.858 59.5663 109.525 59.679 110.267 59.679C110.996 59.679 111.629 59.5729 112.166 59.3608C112.71 59.1487 113.131 58.8537 113.429 58.4759C113.727 58.098 113.876 57.6638 113.876 57.1733C113.876 56.7159 113.741 56.3314 113.469 56.0199C113.204 55.7083 112.813 55.4432 112.295 55.2244C111.785 55.0057 111.159 54.8068 110.416 54.6278L108.199 54.071C106.482 53.6534 105.126 53.0005 104.132 52.1122C103.138 51.224 102.644 50.0275 102.651 48.5227C102.644 47.2898 102.972 46.2126 103.635 45.2912C104.304 44.3698 105.223 43.6506 106.389 43.1335C107.556 42.6165 108.882 42.358 110.366 42.358C111.878 42.358 113.197 42.6165 114.324 43.1335C115.457 43.6506 116.339 44.3698 116.969 45.2912C117.598 46.2126 117.923 47.2798 117.943 48.4929H113.817ZM129.162 47.7273V50.9091H119.964V47.7273H129.162ZM122.052 44.0682H126.288V58.3068C126.288 58.6979 126.348 59.0028 126.467 59.2216C126.586 59.4337 126.752 59.5829 126.964 59.669C127.183 59.7552 127.435 59.7983 127.72 59.7983C127.919 59.7983 128.118 59.7817 128.316 59.7486C128.515 59.7088 128.668 59.679 128.774 59.6591L129.44 62.8111C129.228 62.8774 128.93 62.9536 128.545 63.0398C128.161 63.1326 127.693 63.1889 127.143 63.2088C126.122 63.2486 125.227 63.1127 124.458 62.8011C123.696 62.4896 123.103 62.0057 122.679 61.3494C122.254 60.6932 122.046 59.8646 122.052 58.8636V44.0682ZM138.657 63.2983C137.113 63.2983 135.777 62.9702 134.65 62.3139C133.53 61.651 132.665 60.7296 132.055 59.5497C131.445 58.3632 131.14 56.9877 131.14 55.4233C131.14 53.8456 131.445 52.4669 132.055 51.2869C132.665 50.1004 133.53 49.179 134.65 48.5227C135.777 47.8598 137.113 47.5284 138.657 47.5284C140.202 47.5284 141.534 47.8598 142.654 48.5227C143.781 49.179 144.65 50.1004 145.26 51.2869C145.869 52.4669 146.174 53.8456 146.174 55.4233C146.174 56.9877 145.869 58.3632 145.26 59.5497C144.65 60.7296 143.781 61.651 142.654 62.3139C141.534 62.9702 140.202 63.2983 138.657 63.2983ZM138.677 60.017C139.38 60.017 139.967 59.8182 140.437 59.4205C140.908 59.0161 141.262 58.4659 141.501 57.7699C141.746 57.0739 141.869 56.2817 141.869 55.3935C141.869 54.5052 141.746 53.7131 141.501 53.017C141.262 52.321 140.908 51.7708 140.437 51.3665C139.967 50.9621 139.38 50.7599 138.677 50.7599C137.968 50.7599 137.371 50.9621 136.887 51.3665C136.41 51.7708 136.049 52.321 135.804 53.017C135.565 53.7131 135.446 54.5052 135.446 55.3935C135.446 56.2817 135.565 57.0739 135.804 57.7699C136.049 58.4659 136.41 59.0161 136.887 59.4205C137.371 59.8182 137.968 60.017 138.677 60.017ZM148.929 63V47.7273H153.035V50.392H153.194C153.473 49.4441 153.94 48.7282 154.596 48.2443C155.252 47.7538 156.008 47.5085 156.863 47.5085C157.075 47.5085 157.304 47.5218 157.549 47.5483C157.795 47.5748 158.01 47.6113 158.196 47.6577V51.4162C157.997 51.3565 157.722 51.3035 157.37 51.2571C157.019 51.2107 156.698 51.1875 156.406 51.1875C155.783 51.1875 155.226 51.3234 154.735 51.5952C154.252 51.8603 153.867 52.2315 153.582 52.7088C153.304 53.1861 153.164 53.7363 153.164 54.3594V63H148.929ZM163.466 68.7273C162.929 68.7273 162.425 68.6842 161.954 68.598C161.49 68.5185 161.106 68.4157 160.801 68.2898L161.755 65.1278C162.252 65.2803 162.7 65.3632 163.098 65.3764C163.502 65.3897 163.85 65.2969 164.142 65.098C164.44 64.8991 164.682 64.5611 164.868 64.0838L165.116 63.4375L159.637 47.7273H164.092L167.254 58.9432H167.413L170.605 47.7273H175.089L169.153 64.6506C168.868 65.4725 168.48 66.1884 167.99 66.7983C167.506 67.4148 166.893 67.8887 166.15 68.2202C165.408 68.5582 164.513 68.7273 163.466 68.7273ZM177.336 63V42.6364H181.572V50.2926H181.701C181.887 49.8816 182.155 49.464 182.507 49.0398C182.865 48.6089 183.329 48.2509 183.899 47.9659C184.475 47.6742 185.191 47.5284 186.047 47.5284C187.16 47.5284 188.188 47.8201 189.129 48.4034C190.07 48.9801 190.823 49.8518 191.386 51.0185C191.949 52.1785 192.231 53.6335 192.231 55.3835C192.231 57.0871 191.956 58.5256 191.406 59.6989C190.862 60.8655 190.12 61.7505 189.179 62.3537C188.244 62.9503 187.197 63.2486 186.037 63.2486C185.215 63.2486 184.515 63.1127 183.939 62.8409C183.368 62.5691 182.901 62.2277 182.537 61.8168C182.172 61.3991 181.894 60.9782 181.701 60.554H181.512V63H177.336ZM181.483 55.3636C181.483 56.2718 181.609 57.0639 181.86 57.7401C182.112 58.4162 182.477 58.9432 182.954 59.321C183.431 59.6922 184.011 59.8778 184.694 59.8778C185.384 59.8778 185.967 59.6889 186.444 59.3111C186.922 58.9266 187.283 58.3963 187.528 57.7202C187.78 57.0374 187.906 56.2519 187.906 55.3636C187.906 54.482 187.783 53.7064 187.538 53.0369C187.293 52.3674 186.931 51.8437 186.454 51.4659C185.977 51.0881 185.39 50.8991 184.694 50.8991C184.005 50.8991 183.422 51.0814 182.944 51.446C182.474 51.8106 182.112 52.3277 181.86 52.9972C181.609 53.6667 181.483 54.4555 181.483 55.3636ZM201.958 63.2983C200.414 63.2983 199.078 62.9702 197.951 62.3139C196.831 61.651 195.966 60.7296 195.356 59.5497C194.746 58.3632 194.441 56.9877 194.441 55.4233C194.441 53.8456 194.746 52.4669 195.356 51.2869C195.966 50.1004 196.831 49.179 197.951 48.5227C199.078 47.8598 200.414 47.5284 201.958 47.5284C203.503 47.5284 204.835 47.8598 205.955 48.5227C207.082 49.179 207.951 50.1004 208.56 51.2869C209.17 52.4669 209.475 53.8456 209.475 55.4233C209.475 56.9877 209.17 58.3632 208.56 59.5497C207.951 60.7296 207.082 61.651 205.955 62.3139C204.835 62.9702 203.503 63.2983 201.958 63.2983ZM201.978 60.017C202.681 60.017 203.267 59.8182 203.738 59.4205C204.209 59.0161 204.563 58.4659 204.802 57.7699C205.047 57.0739 205.17 56.2817 205.17 55.3935C205.17 54.5052 205.047 53.7131 204.802 53.017C204.563 52.321 204.209 51.7708 203.738 51.3665C203.267 50.9621 202.681 50.7599 201.978 50.7599C201.269 50.7599 200.672 50.9621 200.188 51.3665C199.711 51.7708 199.35 52.321 199.104 53.017C198.866 53.7131 198.746 54.5052 198.746 55.3935C198.746 56.2817 198.866 57.0739 199.104 57.7699C199.35 58.4659 199.711 59.0161 200.188 59.4205C200.672 59.8182 201.269 60.017 201.978 60.017ZM219.13 63.2983C217.585 63.2983 216.25 62.9702 215.123 62.3139C214.003 61.651 213.138 60.7296 212.528 59.5497C211.918 58.3632 211.613 56.9877 211.613 55.4233C211.613 53.8456 211.918 52.4669 212.528 51.2869C213.138 50.1004 214.003 49.179 215.123 48.5227C216.25 47.8598 217.585 47.5284 219.13 47.5284C220.674 47.5284 222.007 47.8598 223.127 48.5227C224.254 49.179 225.122 50.1004 225.732 51.2869C226.342 52.4669 226.647 53.8456 226.647 55.4233C226.647 56.9877 226.342 58.3632 225.732 59.5497C225.122 60.7296 224.254 61.651 223.127 62.3139C222.007 62.9702 220.674 63.2983 219.13 63.2983ZM219.15 60.017C219.853 60.017 220.439 59.8182 220.91 59.4205C221.38 59.0161 221.735 58.4659 221.974 57.7699C222.219 57.0739 222.342 56.2817 222.342 55.3935C222.342 54.5052 222.219 53.7131 221.974 53.017C221.735 52.321 221.38 51.7708 220.91 51.3665C220.439 50.9621 219.853 50.7599 219.15 50.7599C218.441 50.7599 217.844 50.9621 217.36 51.3665C216.883 51.7708 216.522 52.321 216.276 53.017C216.038 53.7131 215.918 54.5052 215.918 55.3935C215.918 56.2817 216.038 57.0739 216.276 57.7699C216.522 58.4659 216.883 59.0161 217.36 59.4205C217.844 59.8182 218.441 60.017 219.15 60.017ZM233.239 58.6051L233.249 53.5241H233.866L238.758 47.7273H243.62L237.048 55.4034H236.043L233.239 58.6051ZM229.401 63V42.6364H233.637V63H229.401ZM238.947 63L234.452 56.348L237.276 53.3551L243.908 63H238.947ZM252.258 42.6364H257.568L263.176 56.3182H263.414L269.022 42.6364H274.332V63H270.156V49.7457H269.987L264.717 62.9006H261.873L256.603 49.696H256.434V63H252.258V42.6364ZM282.155 63.2884C281.18 63.2884 280.312 63.1193 279.55 62.7812C278.787 62.4366 278.184 61.9295 277.74 61.2599C277.303 60.5838 277.084 59.742 277.084 58.7344C277.084 57.8859 277.24 57.1733 277.551 56.5966C277.863 56.0199 278.287 55.5559 278.824 55.2045C279.361 54.8532 279.971 54.5881 280.653 54.4091C281.343 54.2301 282.065 54.1042 282.821 54.0312C283.709 53.9384 284.425 53.8523 284.969 53.7727C285.512 53.6866 285.907 53.5606 286.152 53.3949C286.397 53.2292 286.52 52.9839 286.52 52.6591V52.5994C286.52 51.9697 286.321 51.4825 285.923 51.1378C285.532 50.7931 284.975 50.6207 284.253 50.6207C283.491 50.6207 282.884 50.7898 282.433 51.1278C281.982 51.4593 281.684 51.8769 281.538 52.3807L277.621 52.0625C277.82 51.1345 278.211 50.3324 278.794 49.6562C279.377 48.9735 280.13 48.4498 281.051 48.0852C281.979 47.714 283.053 47.5284 284.273 47.5284C285.121 47.5284 285.933 47.6278 286.709 47.8267C287.491 48.0256 288.184 48.3338 288.787 48.7514C289.397 49.169 289.877 49.706 290.229 50.3622C290.58 51.0118 290.756 51.7907 290.756 52.6989V63H286.739V60.8821H286.619C286.374 61.3594 286.046 61.7803 285.635 62.1449C285.224 62.5028 284.73 62.7846 284.153 62.9901C283.577 63.1889 282.911 63.2884 282.155 63.2884ZM283.368 60.3651C283.991 60.3651 284.541 60.2424 285.018 59.9972C285.496 59.7453 285.87 59.4072 286.142 58.983C286.414 58.5587 286.55 58.0781 286.55 57.5412V55.9205C286.417 56.0066 286.235 56.0862 286.003 56.1591C285.777 56.2254 285.522 56.2884 285.237 56.348C284.952 56.401 284.667 56.4508 284.382 56.4972C284.097 56.5369 283.839 56.5734 283.607 56.6065C283.109 56.6795 282.675 56.7955 282.304 56.9545C281.933 57.1136 281.644 57.3291 281.439 57.6009C281.233 57.866 281.131 58.1974 281.131 58.5952C281.131 59.1719 281.339 59.6127 281.757 59.9176C282.181 60.2159 282.718 60.3651 283.368 60.3651ZM294.042 63V47.7273H298.148V50.392H298.308C298.586 49.4441 299.053 48.7282 299.71 48.2443C300.366 47.7538 301.121 47.5085 301.977 47.5085C302.189 47.5085 302.417 47.5218 302.663 47.5483C302.908 47.5748 303.123 47.6113 303.309 47.6577V51.4162C303.11 51.3565 302.835 51.3035 302.484 51.2571C302.132 51.2107 301.811 51.1875 301.519 51.1875C300.896 51.1875 300.339 51.3234 299.849 51.5952C299.365 51.8603 298.98 52.2315 298.695 52.7088C298.417 53.1861 298.278 53.7363 298.278 54.3594V63H294.042ZM309.337 58.6051L309.347 53.5241H309.963L314.855 47.7273H319.718L313.145 55.4034H312.141L309.337 58.6051ZM305.499 63V42.6364H309.735V63H305.499ZM315.044 63L310.55 56.348L313.374 53.3551L320.006 63H315.044ZM328.127 63.2983C326.556 63.2983 325.204 62.9801 324.07 62.3438C322.943 61.7008 322.075 60.7926 321.465 59.6193C320.855 58.4394 320.55 57.044 320.55 55.4332C320.55 53.8622 320.855 52.4834 321.465 51.2969C322.075 50.1103 322.933 49.1856 324.04 48.5227C325.154 47.8598 326.46 47.5284 327.958 47.5284C328.966 47.5284 329.904 47.6908 330.772 48.0156C331.647 48.3338 332.409 48.8144 333.059 49.4574C333.715 50.1004 334.226 50.9091 334.59 51.8835C334.955 52.8513 335.137 53.9848 335.137 55.2841V56.4474H322.241V53.8224H331.15C331.15 53.2126 331.017 52.6723 330.752 52.2017C330.487 51.7311 330.119 51.3632 329.648 51.098C329.184 50.8262 328.644 50.6903 328.028 50.6903C327.385 50.6903 326.815 50.8395 326.317 51.1378C325.827 51.4295 325.442 51.8239 325.164 52.321C324.886 52.8116 324.743 53.3584 324.737 53.9616V56.4574C324.737 57.2131 324.876 57.866 325.154 58.4162C325.439 58.9664 325.84 59.3906 326.357 59.6889C326.874 59.9872 327.487 60.1364 328.197 60.1364C328.667 60.1364 329.098 60.0701 329.489 59.9375C329.88 59.8049 330.215 59.6061 330.494 59.3409C330.772 59.0758 330.984 58.7509 331.13 58.3665L335.048 58.625C334.849 59.5663 334.441 60.3883 333.825 61.0909C333.215 61.7869 332.426 62.3305 331.458 62.7216C330.497 63.1061 329.387 63.2983 328.127 63.2983ZM346.025 47.7273V50.9091H336.827V47.7273H346.025ZM338.915 44.0682H343.151V58.3068C343.151 58.6979 343.211 59.0028 343.33 59.2216C343.45 59.4337 343.615 59.5829 343.827 59.669C344.046 59.7552 344.298 59.7983 344.583 59.7983C344.782 59.7983 344.981 59.7817 345.18 59.7486C345.379 59.7088 345.531 59.679 345.637 59.6591L346.303 62.8111C346.091 62.8774 345.793 62.9536 345.408 63.0398C345.024 63.1326 344.557 63.1889 344.006 63.2088C342.986 63.2486 342.091 63.1127 341.322 62.8011C340.559 62.4896 339.966 62.0057 339.542 61.3494C339.118 60.6932 338.909 59.8646 338.915 58.8636V44.0682ZM348.784 63V47.7273H353.02V63H348.784ZM350.912 45.7585C350.282 45.7585 349.742 45.5497 349.291 45.1321C348.847 44.7079 348.625 44.2008 348.625 43.6108C348.625 43.0275 348.847 42.527 349.291 42.1094C349.742 41.6851 350.282 41.473 350.912 41.473C351.542 41.473 352.079 41.6851 352.523 42.1094C352.973 42.527 353.199 43.0275 353.199 43.6108C353.199 44.2008 352.973 44.7079 352.523 45.1321C352.079 45.5497 351.542 45.7585 350.912 45.7585ZM360.649 54.1705V63H356.413V47.7273H360.45V50.4219H360.629C360.967 49.5336 361.534 48.831 362.329 48.3139C363.125 47.7902 364.089 47.5284 365.223 47.5284C366.283 47.5284 367.208 47.7604 367.997 48.2244C368.786 48.6884 369.399 49.3513 369.836 50.2131C370.274 51.0682 370.493 52.089 370.493 53.2756V63H366.257V54.0312C366.263 53.0966 366.025 52.3674 365.541 51.8438C365.057 51.3134 364.391 51.0483 363.542 51.0483C362.972 51.0483 362.468 51.1709 362.031 51.4162C361.6 51.6615 361.262 52.0194 361.017 52.4901C360.778 52.9541 360.655 53.5142 360.649 54.1705ZM380.712 69.0455C379.339 69.0455 378.163 68.8565 377.182 68.4787C376.207 68.1075 375.432 67.6004 374.855 66.9574C374.278 66.3144 373.904 65.5919 373.732 64.7898L377.649 64.2628C377.768 64.5677 377.957 64.8527 378.216 65.1179C378.474 65.383 378.816 65.5952 379.24 65.7543C379.671 65.92 380.195 66.0028 380.811 66.0028C381.732 66.0028 382.491 65.7775 383.088 65.3267C383.691 64.8826 383.993 64.1368 383.993 63.0895V60.2955H383.814C383.628 60.7197 383.35 61.1207 382.979 61.4986C382.607 61.8764 382.13 62.1847 381.547 62.4233C380.964 62.6619 380.268 62.7812 379.459 62.7812C378.312 62.7812 377.268 62.5161 376.327 61.9858C375.392 61.4489 374.646 60.6302 374.089 59.5298C373.539 58.4228 373.264 57.0241 373.264 55.3338C373.264 53.6037 373.546 52.1586 374.109 50.9986C374.673 49.8385 375.422 48.9702 376.357 48.3935C377.298 47.8168 378.329 47.5284 379.449 47.5284C380.304 47.5284 381.02 47.6742 381.597 47.9659C382.173 48.2509 382.637 48.6089 382.989 49.0398C383.347 49.464 383.622 49.8816 383.814 50.2926H383.973V47.7273H388.179V63.1491C388.179 64.4484 387.861 65.5355 387.224 66.4105C386.588 67.2855 385.706 67.9418 384.58 68.3793C383.459 68.8234 382.17 69.0455 380.712 69.0455ZM380.801 59.5994C381.484 59.5994 382.061 59.4304 382.531 59.0923C383.009 58.7476 383.373 58.2571 383.625 57.6207C383.884 56.9777 384.013 56.2088 384.013 55.3139C384.013 54.419 383.887 53.6435 383.635 52.9872C383.383 52.3243 383.018 51.8106 382.541 51.446C382.064 51.0814 381.484 50.8991 380.801 50.8991C380.105 50.8991 379.518 51.0881 379.041 51.4659C378.564 51.8371 378.203 52.3542 377.957 53.017C377.712 53.6799 377.589 54.4455 377.589 55.3139C377.589 56.1955 377.712 56.9579 377.957 57.6009C378.209 58.2372 378.571 58.7311 379.041 59.0824C379.518 59.4271 380.105 59.5994 380.801 59.5994Z" fill="white"/>
<path d="M55.8333 70.9146C56.8646 71.2511 57.9722 70.5516 57.9722 69.5422V36.1261C57.9722 35.7542 57.8194 35.3823 57.4948 35.1521C55.6233 33.7709 51.3264 32 45.75 32C40.928 32 36.421 33.1776 33.7283 34.1339C32.6493 34.5235 32 35.5152 32 36.5865V69.374C32 70.4276 33.2222 71.1626 34.3012 70.8349C37.309 69.9052 42.0738 68.8339 45.75 68.8339C48.987 68.8339 53.2934 70.0735 55.8333 70.9146ZM63.1667 70.9146C65.7066 70.0735 70.013 68.8339 73.25 68.8339C76.9262 68.8339 81.691 69.9052 84.6988 70.8349C85.7778 71.1714 87 70.4276 87 69.374V36.5865C87 35.5152 86.3507 34.5235 85.2717 34.1427C82.579 33.1776 78.072 32 73.25 32C67.6736 32 63.3767 33.7709 61.5052 35.1521C61.1901 35.3823 61.0278 35.7542 61.0278 36.1261V69.5422C61.0278 70.5516 62.145 71.2511 63.1667 70.9146Z" fill="white"/>
</g>
<defs>
<filter id="filter0_d_31_11" x="0" y="0" width="420.179" height="103" filterUnits="userSpaceOnUse" color-interpolation-filters="sRGB">
<feFlood flood-opacity="0" result="BackgroundImageFix"/>
<feColorMatrix in="SourceAlpha" type="matrix" values="0 0 0 0 0 0 0 0 0 0 0 0 0 0 0 0 0 0 127 0" result="hardAlpha"/>
<feOffset/>
<feGaussianBlur stdDeviation="16"/>
<feComposite in2="hardAlpha" operator="out"/>
<feColorMatrix type="matrix" values="0 0 0 0 0.139904 0 0 0 0 0 0 0 0 0 0.161667 0 0 0 0.1 0"/>
<feBlend mode="normal" in2="BackgroundImageFix" result="effect1_dropShadow_31_11"/>
<feBlend mode="normal" in="SourceGraphic" in2="effect1_dropShadow_31_11" result="shape"/>
</filter>
</defs>
</svg>
